<svg xmlns="http://www.w3.org/2000/svg" viewBox="0 0 32 32" fill="none">
  <rect width="32" height="32" rx="6" fill="#0A1628"/>
  <g transform="translate(2, 3) scale(0.117)" stroke="#00B4D8" fill="none" stroke-linecap="round" stroke-linejoin="round">
    <path d="M120 22c0 0-2 8-2 18v110c0 10-3 18-10 22-8 5-20 8-30 8-10 0-18-2-20 0" stroke-width="10"/>
    <path d="M58 180c-6 3-8 10-2 15 6 5 16 3 24-2 8-5 13-13 10-19" stroke-width="9"/>
    <path d="M48 30c7-6 17-8 72-8 55 0 65 2 72 8" stroke-width="8"/>
    <circle cx="120" cy="18" r="6" fill="#00B4D8"/>
    <line x1="60" y1="25" x2="52" y2="80" stroke-width="5"/>
    <line x1="60" y1="25" x2="68" y2="80" stroke-width="5"/>
    <line x1="38" y1="80" x2="82" y2="80" stroke-width="5"/>
    <path d="M38 80c0 0 4 20 22 20s22-20 22-20" stroke-width="5"/>
    <line x1="180" y1="25" x2="172" y2="70" stroke-width="5"/>
    <line x1="180" y1="25" x2="188" y2="70" stroke-width="5"/>
    <line x1="158" y1="70" x2="202" y2="70" stroke-width="5"/>
    <path d="M158 70c0 0 4 20 22 20s22-20 22-20" stroke-width="5"/>
  </g>
</svg>
