<svg width="1280" height="720" viewBox="0 0 1280 720" fill="none" xmlns="http://www.w3.org/2000/svg" role="img" aria-labelledby="title desc">
  <title id="title">LimitGuard Dashboard</title>
  <desc id="desc">Preview illustration of the LimitGuard dashboard with risk summary cards and alerts.</desc>
  <rect width="1280" height="720" rx="18" fill="#F1F4F8"/>
  <rect width="210" height="720" fill="#203A63"/>
  <rect x="0" y="0" width="210" height="78" fill="#1B3256"/>
  <text x="20" y="35" fill="#F2F7FF" font-family="Inter, sans-serif" font-size="28" font-weight="700">LimitGuard</text>
  <text x="20" y="58" fill="#AFC3E1" font-family="Inter, sans-serif" font-size="16">Limitation Period Tracker</text>
  <rect x="210" y="0" width="1070" height="76" fill="#F8FAFD"/>
  <text x="248" y="46" fill="#0F1E38" font-family="Inter, sans-serif" font-size="42" font-weight="700">Dashboard</text>

  <rect x="248" y="104" width="992" height="56" rx="10" fill="#E8F0FF" stroke="#AFC5F5"/>
  <text x="268" y="138" fill="#335CAA" font-family="Inter, sans-serif" font-size="20">Calculated deadlines should be reviewed for legal accuracy.</text>

  <rect x="248" y="190" width="150" height="100" rx="12" fill="white" stroke="#D8DEE8"/>
  <rect x="414" y="190" width="150" height="100" rx="12" fill="white" stroke="#D8DEE8"/>
  <rect x="580" y="190" width="150" height="100" rx="12" fill="white" stroke="#D8DEE8"/>
  <rect x="746" y="190" width="150" height="100" rx="12" fill="white" stroke="#D8DEE8"/>
  <rect x="912" y="190" width="150" height="100" rx="12" fill="white" stroke="#D8DEE8"/>
  <rect x="1078" y="190" width="162" height="100" rx="12" fill="white" stroke="#D8DEE8"/>

  <text x="320" y="244" fill="#1F3B65" font-family="Inter, sans-serif" font-size="42" font-weight="700">7</text>
  <text x="478" y="244" fill="#C55535" font-family="Inter, sans-serif" font-size="42" font-weight="700">1</text>
  <text x="644" y="244" fill="#C55535" font-family="Inter, sans-serif" font-size="42" font-weight="700">0</text>
  <text x="810" y="244" fill="#697A93" font-family="Inter, sans-serif" font-size="42" font-weight="700">3</text>
  <text x="976" y="244" fill="#6B5CD6" font-family="Inter, sans-serif" font-size="42" font-weight="700">3</text>
  <text x="1155" y="244" fill="#9AA8BD" font-family="Inter, sans-serif" font-size="42" font-weight="700">0</text>

  <rect x="248" y="320" width="630" height="154" rx="12" fill="white" stroke="#D8DEE8"/>
  <rect x="896" y="320" width="344" height="154" rx="12" fill="white" stroke="#D8DEE8"/>
  <text x="274" y="364" fill="#C55535" font-family="Inter, sans-serif" font-size="32" font-weight="600">Urgent — ≤30 Days</text>
  <text x="928" y="364" fill="#C55535" font-family="Inter, sans-serif" font-size="32" font-weight="600">Approaching — 31–90 Days</text>

  <rect x="248" y="494" width="630" height="170" rx="12" fill="white" stroke="#D8DEE8"/>
  <rect x="896" y="494" width="344" height="170" rx="12" fill="white" stroke="#D8DEE8"/>

  <rect x="248" y="676" width="992" height="30" rx="8" fill="#223E67"/>
</svg>
