<svg width="1280" height="720" viewBox="0 0 1280 720" fill="none" xmlns="http://www.w3.org/2000/svg" role="img" aria-labelledby="title desc">
  <title id="title">LimitGuard Matters List</title>
  <desc id="desc">Preview illustration of the matters table with filtering chips and status labels.</desc>
  <rect width="1280" height="720" rx="18" fill="#F1F4F8"/>
  <rect width="210" height="720" fill="#203A63"/>
  <text x="248" y="72" fill="#0F1E38" font-family="Inter, sans-serif" font-size="44" font-weight="700">Matters</text>
  <text x="248" y="108" fill="#617490" font-family="Inter, sans-serif" font-size="24">7 matters — click a matter to view calculations and alerts</text>

  <rect x="248" y="132" width="250" height="40" rx="10" fill="white" stroke="#D0D8E4"/>
  <rect x="510" y="132" width="54" height="40" rx="10" fill="#223E67"/>
  <rect x="572" y="132" width="80" height="40" rx="10" fill="white" stroke="#D0D8E4"/>
  <rect x="662" y="132" width="120" height="40" rx="10" fill="white" stroke="#D0D8E4"/>

  <rect x="248" y="194" width="992" height="440" rx="12" fill="white" stroke="#D8DEE8"/>
  <rect x="248" y="194" width="992" height="56" fill="#F8FAFD"/>

  <line x1="248" y1="250" x2="1240" y2="250" stroke="#D8DEE8"/>
  <line x1="248" y1="306" x2="1240" y2="306" stroke="#E6EBF2"/>
  <line x1="248" y1="362" x2="1240" y2="362" stroke="#E6EBF2"/>
  <line x1="248" y1="418" x2="1240" y2="418" stroke="#E6EBF2"/>
  <line x1="248" y1="474" x2="1240" y2="474" stroke="#E6EBF2"/>
  <line x1="248" y1="530" x2="1240" y2="530" stroke="#E6EBF2"/>
  <line x1="248" y1="586" x2="1240" y2="586" stroke="#E6EBF2"/>

  <text x="272" y="230" fill="#6B7A90" font-family="Inter, sans-serif" font-size="18" font-weight="600">REFERENCE</text>
  <text x="392" y="230" fill="#6B7A90" font-family="Inter, sans-serif" font-size="18" font-weight="600">CLIENT</text>
  <text x="852" y="230" fill="#6B7A90" font-family="Inter, sans-serif" font-size="18" font-weight="600">LIMITATION DATE</text>
  <text x="1030" y="230" fill="#6B7A90" font-family="Inter, sans-serif" font-size="18" font-weight="600">STATUS</text>

  <rect x="1008" y="270" width="150" height="34" rx="17" fill="#F0EDFF"/>
  <text x="1028" y="293" fill="#6B5CD6" font-family="Inter, sans-serif" font-size="20" font-weight="600">Manual Review</text>
  <rect x="1008" y="326" width="90" height="34" rx="17" fill="#FEEEEE"/>
  <text x="1028" y="349" fill="#B44B41" font-family="Inter, sans-serif" font-size="20" font-weight="600">Expired</text>
  <rect x="1008" y="382" width="100" height="34" rx="17" fill="#EFF3FA"/>
  <text x="1030" y="405" fill="#3E5477" font-family="Inter, sans-serif" font-size="20" font-weight="600">185d</text>
</svg>
