<svg width="1280" height="720" viewBox="0 0 1280 720" fill="none" xmlns="http://www.w3.org/2000/svg" role="img" aria-labelledby="title desc">
  <title id="title">LimitGuard Calculation View</title>
  <desc id="desc">Preview illustration of a matter's limitation period calculation with effective date and reviewed inputs.</desc>
  <rect width="1280" height="720" rx="18" fill="#F1F4F8"/>
  <rect width="210" height="720" fill="#203A63"/>

  <text x="248" y="70" fill="#60738F" font-family="Inter, sans-serif" font-size="24">← Back to MAT-2025-002</text>
  <text x="248" y="126" fill="#0F1E38" font-family="Inter, sans-serif" font-size="46" font-weight="700">Limitation Period Calculation</text>
  <text x="248" y="165" fill="#60738F" font-family="Inter, sans-serif" font-size="28">Greenfield Constructions — MAT-2025-002</text>

  <rect x="248" y="196" width="752" height="166" rx="12" fill="#F4F2FF" stroke="#DDD5FF"/>
  <text x="282" y="274" fill="#7C6CE0" font-family="Inter, sans-serif" font-size="54" font-weight="700">1 Mar 2030</text>
  <rect x="660" y="220" width="308" height="120" rx="12" fill="#FFF9ED" stroke="#E8CB88"/>
  <text x="682" y="262" fill="#9A6126" font-family="Inter, sans-serif" font-size="30" font-weight="700">Manual review required</text>

  <rect x="248" y="384" width="752" height="220" rx="12" fill="white" stroke="#D8DEE8"/>
  <text x="282" y="438" fill="#0F1E38" font-family="Inter, sans-serif" font-size="38" font-weight="700">Calculated Dates</text>

  <rect x="282" y="470" width="332" height="98" rx="10" fill="#F7FAFE" stroke="#D8DEE8"/>
  <rect x="634" y="470" width="332" height="98" rx="10" fill="#F7FAFE" stroke="#D8DEE8"/>
  <rect x="282" y="578" width="332" height="98" rx="10" fill="#F7FAFE" stroke="#D8DEE8"/>
  <rect x="634" y="578" width="332" height="98" rx="10" fill="#264571"/>

  <text x="306" y="527" fill="#111D33" font-family="Inter, sans-serif" font-size="40" font-weight="700">1 Mar 2030</text>
  <text x="658" y="527" fill="#697A93" font-family="Inter, sans-serif" font-size="40" font-weight="700">N/A</text>
  <text x="306" y="635" fill="#697A93" font-family="Inter, sans-serif" font-size="40" font-weight="700">N/A</text>
  <text x="658" y="635" fill="#F4F8FF" font-family="Inter, sans-serif" font-size="40" font-weight="700">1 Mar 2030</text>
</svg>
